<svg width="360" height="90" viewBox="0 0 360 90" fill="none" xmlns="http://www.w3.org/2000/svg">
  <path
    d="M0 0V72.5263C0.524794 72.2202 1.05888 71.9072 1.60162 71.5888L2.34702 71.1512L2.34813 71.1505C14.0546 64.2771 29.5412 55.1842 42.6316 56.5859C58.9516 58.3329 73.6993 65.6853 88.3989 73.0137C106.389 81.9825 124.307 90.9155 144.947 89.4937C159.717 88.4767 171.141 80.5918 182.405 72.8166C196.053 63.3967 209.467 54.1379 228.316 57.448C242.506 59.94 255.747 66.4805 268.976 73.0152C285.752 81.3018 302.509 89.579 321.158 89.579C329.802 89.579 340.478 83.4468 349.844 78.0663L349.846 78.0653C353.495 75.9691 356.946 73.9871 360 72.5263L360 0H0Z"
    fill="#e6d256" />
</svg>
